<mxfile host="app.diagrams.net" agent="Mozilla/5.0 (Windows NT 10.0; Win64; x64) AppleWebKit/537.36 (KHTML, like Gecko) Chrome/135.0.0.0 Safari/537.36 Edg/135.0.0.0" version="26.2.9">
  <diagram name="第 1 页" id="C0y7KIeX4fGaXWr5NmAI">
    <mxGraphModel dx="1036" dy="536" grid="1" gridSize="10" guides="1" tooltips="1" connect="1" arrows="1" fold="1" page="1" pageScale="1" pageWidth="827" pageHeight="1169" math="0" shadow="0">
      <root>
        <mxCell id="0" />
        <mxCell id="1" parent="0" />
        <mxCell id="PCT_emsRa2fTHoMaPNn8-3" value="" style="edgeStyle=orthogonalEdgeStyle;rounded=0;orthogonalLoop=1;jettySize=auto;html=1;" edge="1" parent="1" source="PCT_emsRa2fTHoMaPNn8-1" target="PCT_emsRa2fTHoMaPNn8-2">
          <mxGeometry relative="1" as="geometry" />
        </mxCell>
        <mxCell id="PCT_emsRa2fTHoMaPNn8-1" value="列表" style="rounded=0;whiteSpace=wrap;html=1;" vertex="1" parent="1">
          <mxGeometry width="120" height="60" as="geometry" />
        </mxCell>
        <mxCell id="PCT_emsRa2fTHoMaPNn8-5" value="" style="edgeStyle=orthogonalEdgeStyle;rounded=0;orthogonalLoop=1;jettySize=auto;html=1;" edge="1" parent="1" source="PCT_emsRa2fTHoMaPNn8-2" target="PCT_emsRa2fTHoMaPNn8-4">
          <mxGeometry relative="1" as="geometry" />
        </mxCell>
        <mxCell id="PCT_emsRa2fTHoMaPNn8-8" style="edgeStyle=orthogonalEdgeStyle;rounded=0;orthogonalLoop=1;jettySize=auto;html=1;exitX=1;exitY=0.5;exitDx=0;exitDy=0;entryX=0;entryY=0.5;entryDx=0;entryDy=0;" edge="1" parent="1" source="PCT_emsRa2fTHoMaPNn8-2" target="PCT_emsRa2fTHoMaPNn8-6">
          <mxGeometry relative="1" as="geometry" />
        </mxCell>
        <mxCell id="PCT_emsRa2fTHoMaPNn8-9" style="edgeStyle=orthogonalEdgeStyle;rounded=0;orthogonalLoop=1;jettySize=auto;html=1;exitX=1;exitY=0.5;exitDx=0;exitDy=0;entryX=0;entryY=0.5;entryDx=0;entryDy=0;" edge="1" parent="1" source="PCT_emsRa2fTHoMaPNn8-2" target="PCT_emsRa2fTHoMaPNn8-7">
          <mxGeometry relative="1" as="geometry" />
        </mxCell>
        <mxCell id="PCT_emsRa2fTHoMaPNn8-2" value="获取查询类型：待审批、预审批等" style="whiteSpace=wrap;html=1;rounded=0;" vertex="1" parent="1">
          <mxGeometry y="100" width="120" height="60" as="geometry" />
        </mxCell>
        <mxCell id="PCT_emsRa2fTHoMaPNn8-4" value="交易室、交易员执行页" style="whiteSpace=wrap;html=1;rounded=0;" vertex="1" parent="1">
          <mxGeometry x="160" y="100" width="120" height="60" as="geometry" />
        </mxCell>
        <mxCell id="PCT_emsRa2fTHoMaPNn8-6" value="审批页" style="rounded=0;whiteSpace=wrap;html=1;" vertex="1" parent="1">
          <mxGeometry x="160" y="200" width="120" height="60" as="geometry" />
        </mxCell>
        <mxCell id="PCT_emsRa2fTHoMaPNn8-7" value="交易员其他页" style="rounded=0;whiteSpace=wrap;html=1;" vertex="1" parent="1">
          <mxGeometry x="160" y="300" width="120" height="60" as="geometry" />
        </mxCell>
      </root>
    </mxGraphModel>
  </diagram>
</mxfile>
